  0
SECTION
  2
HEADER
  9
$ACADVER
  1
AC1009
  9
$DWGCODEPAGE
  3
ansi_1252
  9
$INSBASE
 10
0.0
 20
0.0
 30
0.0
  9
$EXTMIN
 10
1.000000000000000E+20
 20
1.000000000000000E+20
 30
1.000000000000000E+20
  9
$EXTMAX
 10
-1.000000000000000E+20
 20
-1.000000000000000E+20
 30
-1.000000000000000E+20
  9
$LIMMIN
 10
0.0
 20
0.0
  9
$LIMMAX
 10
12.0
 20
9.0
  9
$ORTHOMODE
 70
     0
  9
$REGENMODE
 70
     1
  9
$FILLMODE
 70
     1
  9
$QTEXTMODE
 70
     0
  9
$MIRRTEXT
 70
     1
  9
$DRAGMODE
 70
     2
  9
$LTSCALE
 40
1.0
  9
$OSMODE
 70
    37
  9
$ATTMODE
 70
     1
  9
$TEXTSIZE
 40
0.2
  9
$TRACEWID
 40
0.05
  9
$TEXTSTYLE
  7
STANDARD
  9
$CLAYER
  8
LAYER_02
  9
$CELTYPE
  6
BYLAYER
  9
$CECOLOR
 62
   256
  9
$DIMSCALE
 40
1.0
  9
$DIMASZ
 40
0.18
  9
$DIMEXO
 40
0.0625
  9
$DIMDLI
 40
0.38
  9
$DIMRND
 40
0.0
  9
$DIMDLE
 40
0.0
  9
$DIMEXE
 40
0.18
  9
$DIMTP
 40
0.0
  9
$DIMTM
 40
0.0
  9
$DIMTXT
 40
0.18
  9
$DIMCEN
 40
0.09
  9
$DIMTSZ
 40
0.0
  9
$DIMTOL
 70
     0
  9
$DIMLIM
 70
     0
  9
$DIMTIH
 70
     1
  9
$DIMTOH
 70
     1
  9
$DIMSE1
 70
     0
  9
$DIMSE2
 70
     0
  9
$DIMTAD
 70
     0
  9
$DIMZIN
 70
     0
  9
$DIMBLK
  1

  9
$DIMASO
 70
     1
  9
$DIMSHO
 70
     1
  9
$DIMPOST
  1

  9
$DIMAPOST
  1

  9
$DIMALT
 70
     0
  9
$DIMALTD
 70
     2
  9
$DIMALTF
 40
25.4
  9
$DIMLFAC
 40
1.0
  9
$DIMTOFL
 70
     0
  9
$DIMTVP
 40
0.0
  9
$DIMTIX
 70
     0
  9
$DIMSOXD
 70
     0
  9
$DIMSAH
 70
     0
  9
$DIMBLK1
  1

  9
$DIMBLK2
  1

  9
$DIMSTYLE
  2
STANDARD_ACAD
  9
$DIMCLRD
 70
     0
  9
$DIMCLRE
 70
     0
  9
$DIMCLRT
 70
     0
  9
$DIMTFAC
 40
1.0
  9
$DIMGAP
 40
0.09
  9
$LUNITS
 70
     2
  9
$LUPREC
 70
     3
  9
$SKETCHINC
 40
0.1
  9
$FILLETRAD
 40
0.5
  9
$AUNITS
 70
     0
  9
$AUPREC
 70
     0
  9
$MENU
  1
.
  9
$ELEVATION
 40
0.0
  9
$PELEVATION
 40
0.0
  9
$THICKNESS
 40
0.0
  9
$LIMCHECK
 70
     0
  9
$CHAMFERA
 40
0.0
  9
$CHAMFERB
 40
0.0
  9
$SKPOLY
 70
     0
  9
$TDCREATE
 40
2459620.448212535
  9
$TDUPDATE
 40
2459620.448251111
  9
$TDINDWG
 40
0.0000000116
  9
$TDUSRTIMER
 40
0.0000000116
  9
$USRTIMER
 70
     1
  9
$ANGBASE
 50
0.0
  9
$ANGDIR
 70
     0
  9
$PDMODE
 70
     0
  9
$PDSIZE
 40
0.0
  9
$PLINEWID
 40
0.0
  9
$COORDS
 70
     1
  9
$SPLFRAME
 70
     0
  9
$SPLINETYPE
 70
     6
  9
$SPLINESEGS
 70
     8
  9
$ATTDIA
 70
     0
  9
$ATTREQ
 70
     1
  9
$HANDLING
 70
     1
  9
$HANDSEED
  5
CD
  9
$SURFTAB1
 70
     6
  9
$SURFTAB2
 70
     6
  9
$SURFTYPE
 70
     6
  9
$SURFU
 70
     6
  9
$SURFV
 70
     6
  9
$UCSNAME
  2

  9
$UCSORG
 10
0.0
 20
0.0
 30
0.0
  9
$UCSXDIR
 10
1.0
 20
0.0
 30
0.0
  9
$UCSYDIR
 10
0.0
 20
1.0
 30
0.0
  9
$PUCSNAME
  2

  9
$PUCSORG
 10
0.0
 20
0.0
 30
0.0
  9
$PUCSXDIR
 10
1.0
 20
0.0
 30
0.0
  9
$PUCSYDIR
 10
0.0
 20
1.0
 30
0.0
  9
$USERI1
 70
     0
  9
$USERI2
 70
     0
  9
$USERI3
 70
     0
  9
$USERI4
 70
     0
  9
$USERI5
 70
     0
  9
$USERR1
 40
0.0
  9
$USERR2
 40
0.0
  9
$USERR3
 40
0.0
  9
$USERR4
 40
0.0
  9
$USERR5
 40
0.0
  9
$WORLDVIEW
 70
     1
  9
$SHADEDGE
 70
     3
  9
$SHADEDIF
 70
    70
  9
$TILEMODE
 70
     1
  9
$MAXACTVP
 70
    64
  9
$PLIMCHECK
 70
     0
  9
$PEXTMIN
 10
1.000000000000000E+20
 20
1.000000000000000E+20
 30
1.000000000000000E+20
  9
$PEXTMAX
 10
-1.000000000000000E+20
 20
-1.000000000000000E+20
 30
-1.000000000000000E+20
  9
$PLIMMIN
 10
0.0
 20
0.0
  9
$PLIMMAX
 10
12.0
 20
9.0
  9
$UNITMODE
 70
     0
  9
$VISRETAIN
 70
     1
  9
$PLINEGEN
 70
     0
  9
$PSLTSCALE
 70
     1
  0
ENDSEC
  0
SECTION
  2
TABLES
  0
TABLE
  2
VPORT
 70
     1
  0
VPORT
  2
*ACTIVE
 70
     0
 10
0.0
 20
0.0
 11
1.0
 21
1.0
 12
10.42990654205607
 22
4.5
 13
0.0
 23
0.0
 14
0.5
 24
0.5
 15
0.5
 25
0.5
 16
0.0
 26
0.0
 36
1.0
 17
0.0
 27
0.0
 37
0.0
 40
9.0
 41
1.972972972850329
 42
50.0
 43
0.0
 44
0.0
 50
0.0
 51
0.0
 71
     0
 72
   100
 73
     1
 74
     3
 75
     0
 76
     0
 77
     0
 78
     0
  0
ENDTAB
  0
TABLE
  2
LTYPE
 70
     1
  0
LTYPE
  2
CONTINUOUS
 70
     0
  3
Solid line
 72
    65
 73
     0
 40
0.0
  0
ENDTAB
  0
TABLE
  2
LAYER
 70
     2
  0
LAYER
  2
0
 70
     0
 62
     7
  6
CONTINUOUS
  0
LAYER
  2
LAYER_02
 70
     0
 62
   192
  6
CONTINUOUS
  0
ENDTAB
  0
TABLE
  2
STYLE
 70
     1
  0
STYLE
  2
STANDARD
 70
     0
 40
0.0
 41
1.0
 50
0.0
 71
     0
 42
0.2
  3
txt
  4

  0
ENDTAB
  0
TABLE
  2
VIEW
 70
     0
  0
ENDTAB
  0
TABLE
  2
UCS
 70
     0
  0
ENDTAB
  0
TABLE
  2
APPID
 70
     1
  0
APPID
  2
ACAD
 70
     0
  0
ENDTAB
  0
TABLE
  2
DIMSTYLE
 70
     1
  0
DIMSTYLE
  2
STANDARD_ACAD
 70
     0
  3

  4

  5

  6

  7

 40
1.0
 41
0.18
 42
0.0625
 43
0.38
 44
0.18
 45
0.0
 46
0.0
 47
0.0
 48
0.0
140
0.18
141
0.09
142
0.0
143
25.4
144
1.0
145
0.0
146
1.0
147
0.09
 71
     0
 72
     0
 73
     1
 74
     1
 75
     0
 76
     0
 77
     0
 78
     0
170
     0
171
     2
172
     0
173
     0
174
     0
175
     0
176
     0
177
     0
178
     0
  0
ENDTAB
  0
ENDSEC
  0
SECTION
  2
BLOCKS
  0
BLOCK
  8
0
  2
$MODEL_SPACE
 70
     0
 10
0.0
 20
0.0
 30
0.0
  3
$MODEL_SPACE
  1

  0
ENDBLK
  5
21
  8
0
  0
BLOCK
 67
     1
  8
0
  2
$PAPER_SPACE
 70
     0
 10
0.0
 20
0.0
 30
0.0
  3
$PAPER_SPACE
  1

  0
ENDBLK
  5
1D
 67
     1
  8
0
  0
ENDSEC
  0
SECTION
  2
ENTITIES
  0
LINE
  5
6F
  8
LAYER_02
 10
0.0
 20
206.011113888889
 30
103.9999999999999
 11
0.0
 21
403.0111138888889
 31
103.9999999999999
  0
LINE
  5
70
  8
LAYER_02
 10
0.0
 20
403.0111138888889
 30
103.9999999999999
 11
0.0
 21
406.1373435620758
 31
103.9898132681846
  0
LINE
  5
71
  8
LAYER_02
 10
0.0
 20
406.1373435620758
 30
103.9898132681846
 11
0.0
 21
409.7921062664878
 31
103.9223613739013
  0
LINE
  5
72
  8
LAYER_02
 10
0.0
 20
409.7921062664878
 30
103.9223613739013
 11
0.0
 21
411.7716549858023
 31
103.8520535882562
  0
LINE
  5
73
  8
LAYER_02
 10
0.0
 20
411.7716549858023
 30
103.8520535882562
 11
0.0
 21
413.8293569484843
 31
103.7506430745124
  0
LINE
  5
74
  8
LAYER_02
 10
0.0
 20
413.8293569484843
 30
103.7506430745124
 11
0.0
 21
415.948530284183
 31
103.6138916630297
  0
LINE
  5
75
  8
LAYER_02
 10
0.0
 20
415.948530284183
 30
103.6138916630297
 11
0.0
 21
418.1131226270887
 31
103.4381713867187
  0
LINE
  5
76
  8
LAYER_02
 10
0.0
 20
418.1131226270887
 30
103.4381713867187
 11
0.0
 21
420.3077111159333
 31
103.2204410117119
  0
LINE
  5
77
  8
LAYER_02
 10
0.0
 20
420.3077111159333
 30
103.2204410117119
 11
0.0
 21
422.5175023939901
 31
102.958222568035
  0
LINE
  5
78
  8
LAYER_02
 10
0.0
 20
422.5175023939901
 30
102.958222568035
 11
0.0
 21
424.728332609074
 31
102.6495778802781
  0
LINE
  5
79
  8
LAYER_02
 10
0.0
 20
424.728332609074
 30
102.6495778802781
 11
0.0
 21
426.9266674135418
 31
102.2930850982665
  0
LINE
  5
7A
  8
LAYER_02
 10
0.0
 20
426.9266674135418
 30
102.2930850982665
 11
0.0
 21
429.0996019642919
 31
101.887815227732
  0
LINE
  5
7B
  8
LAYER_02
 10
0.0
 20
429.0996019642919
 30
101.887815227732
 11
0.0
 21
431.2348609227632
 31
101.433308660984
  0
LINE
  5
7C
  8
LAYER_02
 10
0.0
 20
431.2348609227632
 30
101.433308660984
 11
0.0
 21
433.3207984549371
 31
100.9295517075806
  0
LINE
  5
7D
  8
LAYER_02
 10
0.0
 20
433.3207984549371
 30
100.9295517075806
 11
0.0
 21
435.3463982313367
 31
100.3769531249999
  0
LINE
  5
7E
  8
LAYER_02
 10
0.0
 20
435.3463982313367
 30
100.3769531249999
 11
0.0
 21
437.3012734270262
 31
99.77632064931088
  0
LINE
  5
7F
  8
LAYER_02
 10
0.0
 20
437.3012734270262
 30
99.77632064931088
 11
0.0
 21
439.1756667216115
 31
99.1288375258445
  0
LINE
  5
80
  8
LAYER_02
 10
0.0
 20
439.1756667216115
 30
99.1288375258445
 11
0.0
 21
440.9604502992398
 31
98.43603903986507
  0
LINE
  5
81
  8
LAYER_02
 10
0.0
 20
440.9604502992398
 30
98.43603903986507
 11
0.0
 21
442.6471258486005
 31
97.69978904724114
  0
LINE
  5
82
  8
LAYER_02
 10
0.0
 20
442.6471258486005
 30
97.69978904724114
 11
0.0
 21
443.451189520544
 31
97.31603625876589
  0
LINE
  5
83
  8
LAYER_02
 10
0.0
 20
443.451189520544
 30
97.31603625876589
 11
0.0
 21
444.227824562924
 31
96.92225650511675
  0
LINE
  5
84
  8
LAYER_02
 10
0.0
 20
444.227824562924
 30
96.92225650511675
 11
0.0
 21
444.9761457349794
 31
96.51876472757424
  0
LINE
  5
85
  8
LAYER_02
 10
0.0
 20
444.9761457349794
 30
96.51876472757424
 11
0.0
 21
445.6953071399821
 31
96.10589200258248
  0
LINE
  5
86
  8
LAYER_02
 10
0.0
 20
445.6953071399821
 30
96.10589200258248
 11
0.0
 21
446.3845022252386
 31
95.68398480833268
  0
LINE
  5
87
  8
LAYER_02
 10
0.0
 20
446.3845022252386
 30
95.68398480833268
 11
0.0
 21
447.0429637820887
 31
95.25340429134661
  0
LINE
  5
88
  8
LAYER_02
 10
0.0
 20
447.0429637820887
 30
95.25340429134661
 11
0.0
 21
447.6699639459064
 31
94.81452553306002
  0
LINE
  5
89
  8
LAYER_02
 10
0.0
 20
447.6699639459064
 30
94.81452553306002
 11
0.0
 21
448.2648141960991
 31
94.3677368164062
  0
LINE
  5
8A
  8
LAYER_02
 10
0.0
 20
448.2648141960991
 30
94.3677368164062
 11
0.0
 21
448.8268653561086
 31
93.91343889239937
  0
LINE
  5
8B
  8
LAYER_02
 10
0.0
 20
448.8268653561086
 30
93.91343889239937
 11
0.0
 21
449.3555075934101
 31
93.45204424671823
  0
LINE
  5
8C
  8
LAYER_02
 10
0.0
 20
449.3555075934101
 30
93.45204424671823
 11
0.0
 21
449.8501704195128
 31
92.98397636628937
  0
LINE
  5
8D
  8
LAYER_02
 10
0.0
 20
449.8501704195128
 30
92.98397636628937
 11
0.0
 21
450.3103226899597
 31
92.50966900587076
  0
LINE
  5
8E
  8
LAYER_02
 10
0.0
 20
450.3103226899597
 30
92.50966900587076
 11
0.0
 21
450.7354726043278
 31
92.02956545463525
  0
LINE
  5
8F
  8
LAYER_02
 10
0.0
 20
450.7354726043278
 30
92.02956545463525
 11
0.0
 21
451.1251677062279
 31
91.54411780275399
  0
LINE
  5
90
  8
LAYER_02
 10
0.0
 20
451.1251677062279
 30
91.54411780275399
 11
0.0
 21
451.4789948833047
 31
91.05378620797995
  0
LINE
  5
91
  8
LAYER_02
 10
0.0
 20
451.4789948833047
 30
91.05378620797995
 11
0.0
 21
451.7965803672365
 31
90.55903816223139
  0
LINE
  5
92
  8
LAYER_02
 10
0.0
 20
451.7965803672365
 30
90.55903816223139
 11
0.0
 21
452.0775897337359
 31
90.06034775817528
  0
LINE
  5
93
  8
LAYER_02
 10
0.0
 20
452.0775897337359
 30
90.06034775817528
 11
0.0
 21
452.3217279025484
 31
89.55819495581085
  0
LINE
  5
94
  8
LAYER_02
 10
0.0
 20
452.3217279025484
 30
89.55819495581085
 11
0.0
 21
452.5287391374544
 31
89.05306484905299
  0
LINE
  5
95
  8
LAYER_02
 10
0.0
 20
452.5287391374544
 30
89.05306484905299
 11
0.0
 21
452.6984070462677
 31
88.54544693231577
  0
LINE
  5
96
  8
LAYER_02
 10
0.0
 20
452.6984070462677
 30
88.54544693231577
 11
0.0
 21
452.8305545808361
 31
88.0358343670959
  0
LINE
  5
97
  8
LAYER_02
 10
0.0
 20
452.8305545808361
 30
88.0358343670959
 11
0.0
 21
452.9250440370409
 31
87.5247232485562
  0
LINE
  5
98
  8
LAYER_02
 10
0.0
 20
452.9250440370409
 30
87.5247232485562
 11
0.0
 21
452.9817770547977
 31
87.01261187210906
  0
LINE
  5
99
  8
LAYER_02
 10
0.0
 20
452.9817770547977
 30
87.01261187210906
 11
0.0
 21
453.0006946180556
 31
86.49999999999994
  0
LINE
  5
9A
  8
LAYER_02
 10
0.0
 20
453.0006946180556
 30
86.49999999999994
 11
0.0
 21
452.9817770547977
 31
85.98738812789082
  0
LINE
  5
9B
  8
LAYER_02
 10
0.0
 20
452.9817770547977
 30
85.98738812789082
 11
0.0
 21
452.9250440370409
 31
85.47527675144369
  0
LINE
  5
9C
  8
LAYER_02
 10
0.0
 20
452.9250440370409
 30
85.47527675144369
 11
0.0
 21
452.8305545808361
 31
84.96416563290398
  0
LINE
  5
9D
  8
LAYER_02
 10
0.0
 20
452.8305545808361
 30
84.96416563290398
 11
0.0
 21
452.6984070462677
 31
84.45455306768412
  0
LINE
  5
9E
  8
LAYER_02
 10
0.0
 20
452.6984070462677
 30
84.45455306768412
 11
0.0
 21
452.5287391374545
 31
83.9469351509469
  0
LINE
  5
9F
  8
LAYER_02
 10
0.0
 20
452.5287391374545
 30
83.9469351509469
 11
0.0
 21
452.3217279025484
 31
83.44180504418904
  0
LINE
  5
A0
  8
LAYER_02
 10
0.0
 20
452.3217279025484
 30
83.44180504418904
 11
0.0
 21
452.0775897337359
 31
82.9396522418246
  0
LINE
  5
A1
  8
LAYER_02
 10
0.0
 20
452.0775897337359
 30
82.9396522418246
 11
0.0
 21
451.7965803672367
 31
82.4409618377685
  0
LINE
  5
A2
  8
LAYER_02
 10
0.0
 20
451.7965803672367
 30
82.4409618377685
 11
0.0
 21
451.4789948833047
 31
81.94621379201995
  0
LINE
  5
A3
  8
LAYER_02
 10
0.0
 20
451.4789948833047
 30
81.94621379201995
 11
0.0
 21
451.1251677062279
 31
81.45588219724591
  0
LINE
  5
A4
  8
LAYER_02
 10
0.0
 20
451.1251677062279
 30
81.45588219724591
 11
0.0
 21
450.7354726043279
 31
80.97043454536464
  0
LINE
  5
A5
  8
LAYER_02
 10
0.0
 20
450.7354726043279
 30
80.97043454536464
 11
0.0
 21
450.3103226899597
 31
80.49033099412914
  0
LINE
  5
A6
  8
LAYER_02
 10
0.0
 20
450.3103226899597
 30
80.49033099412914
 11
0.0
 21
449.8501704195128
 31
80.01602363371052
  0
LINE
  5
A7
  8
LAYER_02
 10
0.0
 20
449.8501704195128
 30
80.01602363371052
 11
0.0
 21
449.35550759341
 31
79.54795575328166
  0
LINE
  5
A8
  8
LAYER_02
 10
0.0
 20
449.35550759341
 30
79.54795575328166
 11
0.0
 21
448.8268653561087
 31
79.08656110760052
  0
LINE
  5
A9
  8
LAYER_02
 10
0.0
 20
448.8268653561087
 30
79.08656110760052
 11
0.0
 21
448.2648141960992
 31
78.6322631835937
  0
LINE
  5
AA
  8
LAYER_02
 10
0.0
 20
448.2648141960992
 30
78.6322631835937
 11
0.0
 21
447.6699639459065
 31
78.18547446693987
  0
LINE
  5
AB
  8
LAYER_02
 10
0.0
 20
447.6699639459065
 30
78.18547446693987
 11
0.0
 21
447.0429637820888
 31
77.74659570865327
  0
LINE
  5
AC
  8
LAYER_02
 10
0.0
 20
447.0429637820888
 30
77.74659570865327
 11
0.0
 21
446.3845022252387
 31
77.31601519166719
  0
LINE
  5
AD
  8
LAYER_02
 10
0.0
 20
446.3845022252387
 30
77.31601519166719
 11
0.0
 21
445.6953071399821
 31
76.8941079974174
  0
LINE
  5
AE
  8
LAYER_02
 10
0.0
 20
445.6953071399821
 30
76.8941079974174
 11
0.0
 21
444.9761457349794
 31
76.48123527242564
  0
LINE
  5
AF
  8
LAYER_02
 10
0.0
 20
444.9761457349794
 30
76.48123527242564
 11
0.0
 21
444.2278245629241
 31
76.07774349488312
  0
LINE
  5
B0
  8
LAYER_02
 10
0.0
 20
444.2278245629241
 30
76.07774349488312
 11
0.0
 21
443.451189520544
 31
75.68396374123398
  0
LINE
  5
B1
  8
LAYER_02
 10
0.0
 20
443.451189520544
 30
75.68396374123398
 11
0.0
 21
442.6471258486006
 31
75.30021095275875
  0
LINE
  5
B2
  8
LAYER_02
 10
0.0
 20
442.6471258486006
 30
75.30021095275875
 11
0.0
 21
440.9604502992399
 31
74.56396096013482
  0
LINE
  5
B3
  8
LAYER_02
 10
0.0
 20
440.9604502992399
 30
74.56396096013482
 11
0.0
 21
439.1756667216115
 31
73.87116247415537
  0
LINE
  5
B4
  8
LAYER_02
 10
0.0
 20
439.1756667216115
 30
73.87116247415537
 11
0.0
 21
437.3012734270263
 31
73.223679350689
  0
LINE
  5
B5
  8
LAYER_02
 10
0.0
 20
437.3012734270263
 30
73.223679350689
 11
0.0
 21
435.3463982313368
 31
72.62304687499994
  0
LINE
  5
B6
  8
LAYER_02
 10
0.0
 20
435.3463982313368
 30
72.62304687499994
 11
0.0
 21
433.3207984549372
 31
72.07044829241924
  0
LINE
  5
B7
  8
LAYER_02
 10
0.0
 20
433.3207984549372
 30
72.07044829241924
 11
0.0
 21
431.2348609227632
 31
71.56669133901589
  0
LINE
  5
B8
  8
LAYER_02
 10
0.0
 20
431.2348609227632
 30
71.56669133901589
 11
0.0
 21
429.0996019642919
 31
71.11218477226787
  0
LINE
  5
B9
  8
LAYER_02
 10
0.0
 20
429.0996019642919
 30
71.11218477226787
 11
0.0
 21
426.9266674135421
 31
70.70691490173331
  0
LINE
  5
BA
  8
LAYER_02
 10
0.0
 20
426.9266674135421
 30
70.70691490173331
 11
0.0
 21
424.7283326090741
 31
70.35042211972171
  0
LINE
  5
BB
  8
LAYER_02
 10
0.0
 20
424.7283326090741
 30
70.35042211972171
 11
0.0
 21
422.5175023939902
 31
70.0417774319648
  0
LINE
  5
BC
  8
LAYER_02
 10
0.0
 20
422.5175023939902
 30
70.0417774319648
 11
0.0
 21
420.3077111159333
 31
69.77955898828797
  0
LINE
  5
BD
  8
LAYER_02
 10
0.0
 20
420.3077111159333
 30
69.77955898828797
 11
0.0
 21
418.1131226270888
 31
69.56182861328118
  0
LINE
  5
BE
  8
LAYER_02
 10
0.0
 20
418.1131226270888
 30
69.56182861328118
 11
0.0
 21
415.9485302841832
 31
69.38610833697012
  0
LINE
  5
BF
  8
LAYER_02
 10
0.0
 20
415.9485302841832
 30
69.38610833697012
 11
0.0
 21
413.8293569484845
 31
69.24935692548743
  0
LINE
  5
C0
  8
LAYER_02
 10
0.0
 20
413.8293569484845
 30
69.24935692548743
 11
0.0
 21
411.7716549858024
 31
69.14794641174367
  0
LINE
  5
C1
  8
LAYER_02
 10
0.0
 20
411.7716549858024
 30
69.14794641174367
 11
0.0
 21
409.7921062664879
 31
69.07763862609855
  0
LINE
  5
C2
  8
LAYER_02
 10
0.0
 20
409.7921062664879
 30
69.07763862609855
 11
0.0
 21
406.1373435620757
 31
69.01018673181525
  0
LINE
  5
C3
  8
LAYER_02
 10
0.0
 20
406.1373435620757
 30
69.01018673181525
 11
0.0
 21
403.0111138888889
 31
68.99999999999991
  0
LINE
  5
C4
  8
LAYER_02
 10
0.0
 20
403.0111138888889
 30
68.99999999999991
 11
0.0
 21
206.0111138888889
 31
68.99999999999991
  0
LINE
  5
C5
  8
LAYER_02
 10
0.0
 20
206.0111138888889
 30
68.99999999999991
 11
0.0
 21
206.011113888889
 31
103.9999999999999
  0
ENDSEC
  0
EOF
