<?xml version="1.0" encoding="UTF-8" standalone="no"?>
<svg
   xmlns:dc="http://purl.org/dc/elements/1.1/"
   xmlns:cc="http://creativecommons.org/ns#"
   xmlns:rdf="http://www.w3.org/1999/02/22-rdf-syntax-ns#"
   xmlns:svg="http://www.w3.org/2000/svg"
   xmlns="http://www.w3.org/2000/svg"
   xmlns:sodipodi="http://sodipodi.sourceforge.net/DTD/sodipodi-0.dtd"
   xmlns:inkscape="http://www.inkscape.org/namespaces/inkscape"
   width="420mm"
   height="297mm"
   viewBox="0 0 420 297"
   version="1.1"
   id="svg8"
   inkscape:version="1.0.1 (3bc2e813f5, 2020-09-07)"
   sodipodi:docname="Fusion.svg">
  <defs
     id="defs2">
    <clipPath
       clipPathUnits="userSpaceOnUse"
       id="clipPath1053">
      <path
         d="M 0,85.063635 H 691.08661 V 0 H 0 Z"
         id="path1051" />
    </clipPath>
    <clipPath
       clipPathUnits="userSpaceOnUse"
       id="clipPath1262">
      <path
         d="M 0,51.777865 H 420.66142 V 0 H 0 Z"
         id="path1260" />
    </clipPath>
  </defs>
  <sodipodi:namedview
     id="base"
     pagecolor="#ffffff"
     bordercolor="#666666"
     borderopacity="1.0"
     inkscape:pageopacity="0.0"
     inkscape:pageshadow="2"
     inkscape:zoom="0.47879046"
     inkscape:cx="938.36996"
     inkscape:cy="461.73008"
     inkscape:document-units="mm"
     inkscape:current-layer="layer1"
     inkscape:document-rotation="0"
     showgrid="false"
     inkscape:window-width="1857"
     inkscape:window-height="1057"
     inkscape:window-x="55"
     inkscape:window-y="1072"
     inkscape:window-maximized="1" />
  <metadata
     id="metadata5">
    <rdf:RDF>
      <cc:Work
         rdf:about="">
        <dc:format>image/svg+xml</dc:format>
        <dc:type
           rdf:resource="http://purl.org/dc/dcmitype/StillImage" />
        <dc:title></dc:title>
      </cc:Work>
    </rdf:RDF>
  </metadata>
  <g
     inkscape:label="Layer 1"
     inkscape:groupmode="layer"
     id="layer1">
    <g
       id="g2418"
       transform="translate(118.25807,-1.1052156)"
       style="stroke-width:0.5;stroke-miterlimit:10;stroke-dasharray:none">
      <g
         id="g1161"
         transform="matrix(0.99995212,0,0,0.99995212,18.943292,-48.547564)"
         style="stroke-width:0.50002394;stroke-miterlimit:10;stroke-dasharray:none">
        <path
           d="m 230,83.983635 -1.47,-0.23 -2.28,-0.36 -2.67,-0.41 -2.86,-0.45 -2.95,-0.45 -2.95,-0.46 -2.94,-0.46 -2.94,-0.46 -2.91,-0.45 -2.97,-0.46 -2.8,-0.38 -2.96,-0.34 -3,-0.33 -3.03,-0.33 -3.07,-0.33 -3.09,-0.34 -3.09,-0.34 -3.09,-0.33 -3.08,-0.34 -3.1,-0.33 -3.08,-0.34 -3.07,-0.33 -3.06,-0.34 -3.02,-0.32 -2.93,-0.32 -2.96,-0.32 -3.11,-0.3 -2.59,-0.24 -2.88,-0.24 -2.88,-0.23 -2.98,-0.23 -2.99,-0.24 -3.04,-0.23 -3.07,-0.24 -3.06,-0.24 -3.07,-0.23 -3.06,-0.24 -3.05,-0.24 -3.05,-0.23 -3.03,-0.24 -3.01,-0.23 -2.92,-0.23 -2.85,-0.22 -2.82,-0.2 -2.81,-0.19 -2.82,-0.17 -2.79,-0.15 -2.78,-0.14 -2.79,-0.13 -2.83,-0.12 -2.9,-0.11 -2.94,-0.09 -2.96,-0.08 -2.95,-0.06 -2.93,-0.05 -2.93,-0.03 -2.92,-0.01 -2.93,0.01 -2.94,0.02 -2.97,0.05 -3,0.07 -3.01,0.09 -3.02,0.11 -3,0.15 -2.98,0.17 -2.96,0.2 -2.94,0.24 -2.94,0.27 -2.92,0.32 -2.9,0.36 -2.87,0.41 -2.63,0.43 -2.54,0.47 -2.43,0.52 -2.29,0.54 -2.13,0.59 -1.96,0.61 -1.75,0.63 -1.51,0.62 -1.23,0.59 -0.99,0.55 -0.78,0.5 -0.59,0.45 -0.44,0.4 -0.32,0.35 -0.25,0.32 -0.21,0.31 -0.17,0.32 -0.12,0.31 -0.08,0.35 -0.02,0.34 0.04,0.26 0.09,0.26 0.17,0.28 0.25,0.26 0.33,0.24 0.42,0.22 0.51,0.21 0.63,0.21 0.76,0.19 0.95,0.21 1.18,0.21 1.5,0.22 1.85,0.22 2.21,0.22 2.48,0.2 2.65,0.17 2.77,0.15 2.82,0.13 2.88,0.12 2.9,0.09 2.92,0.08 2.94,0.07 2.95,0.06 2.96,0.05 2.97,0.04 2.98,0.04 2.99,0.03 2.99,0.02 3.01,0.02 3,0.02 3.01,0.01 3.02,0.01 3.02,0.01 3.02,0.01 h 3.03 3.03 3.04 3.03 3.04 3.04 3.04 3.03 3.04 3.04 3.04 3.04 3.04 3.03 3.04 3.04 3.04 3.04 3.03 3.04 3.04 3.03 3.04 3.04 3.04 3.04 3.04 3.03 3.04 3.04 3.04 3.04 3.03 3.04 3.04 3.04 3.04 3.04 3.03 3.04 3.04 3.03 3.04 3.03 3.04 3.04 3.04 3.03 3.03 2.99 2.9 2.67 2.26 1.19"
           style="fill:none;stroke:#ff0000;stroke-width:0.50002394;stroke-linecap:butt;stroke-linejoin:miter;stroke-miterlimit:10;stroke-dasharray:none;stroke-opacity:1"
           id="path1163" />
      </g>
      <g
         id="g1169"
         transform="matrix(0.99995212,0,0,0.99995212,18.943292,-48.547564)"
         style="stroke-width:0.50002394;stroke-miterlimit:10;stroke-dasharray:none">
        <path
           d="M -6.9,85.063635 H 236.9"
           style="fill:none;stroke:#000000;stroke-width:0.50002394;stroke-linecap:butt;stroke-linejoin:miter;stroke-miterlimit:10;stroke-dasharray:none;stroke-opacity:1"
           id="path1171" />
      </g>
      <g
         id="g1173"
         transform="matrix(0.99995212,0,0,0.99995212,18.943292,-48.547564)"
         style="stroke-width:0.50002394;stroke-miterlimit:10;stroke-dasharray:none">
        <path
           d="m 0,91.963635 v -30.01"
           style="fill:none;stroke:#000000;stroke-width:0.50002394;stroke-linecap:butt;stroke-linejoin:miter;stroke-miterlimit:10;stroke-dasharray:none;stroke-opacity:1"
           id="path1175" />
      </g>
      <path
         d="m 158.92324,56.818786 -0.88981,-0.13997 -1.3897,-0.209955 -1.62965,-0.259944 -1.73963,-0.269942 -1.78961,-0.27994 -1.79962,-0.27994 -1.78961,-0.269942 -1.78962,-0.27994 -1.76962,-0.279939 -1.80961,-0.27994 -1.70963,-0.229951 -1.79962,-0.209955 -1.8196,-0.199957 -1.83961,-0.199957 -1.8696,-0.199957 -1.88959,-0.209955 -1.8796,-0.199957 -1.87959,-0.199957 -1.8696,-0.209955 -1.8896,-0.199957 -1.8696,-0.209955 -1.86959,-0.199957 -1.8596,-0.199957 -1.83961,-0.199957 -1.77962,-0.199957 -1.80961,-0.189959 -1.88959,-0.189959 -1.57966,-0.13997 -1.74963,-0.149968 -1.74962,-0.13997 -1.81961,-0.13997 -1.81961,-0.13997 -1.8496,-0.13997 -1.859603,-0.149968 -1.869598,-0.13997 -1.869599,-0.149967 -1.8596,-0.13997 -1.859601,-0.13997 -1.849603,-0.149968 -1.849602,-0.13997 -1.829607,-0.13997 -1.76962,-0.13997 -1.739627,-0.129972 -1.71963,-0.129972 -1.709633,-0.109976 -1.719631,-0.109977 -1.689637,-0.08998 -1.699635,-0.08998 -1.689637,-0.06999 -1.729628,-0.07998 -1.759622,-0.05999 -1.789616,-0.05999 -1.799613,-0.03999 -1.799614,-0.03999 -1.779618,-0.02999 -1.779617,-0.02 -1.779618,-0.01 -1.789616,0.01 -1.789615,0.01 -1.799614,0.02999 -1.829607,0.03999 -1.829607,0.05999 -1.839605,0.06999 -1.829607,0.08998 -1.809611,0.09998 -1.799613,0.119974 -1.789616,0.149968 -1.789616,0.169963 -1.779617,0.18996 -1.759622,0.219952 -1.749624,0.249947 -1.599657,0.259944 -1.549667,0.289938 -1.479682,0.309933 -1.389702,0.329929 -1.299721,0.359923 -1.189744,0.36992 -1.06977,0.379919 -0.909805,0.379918 -0.759837,0.359923 -0.599871,0.329929 -0.469899,0.309933 -0.359922,0.269942 -0.269942,0.249947 -0.18996,0.209955 -0.159965,0.189959 -0.119975,0.189959 -0.09998,0.199957 -0.07998,0.189959 -0.04999,0.209955 -0.01,0.209955 0.02,0.149968 0.05999,0.169963 0.09998,0.159966 0.149968,0.159966 0.209955,0.149967 0.249946,0.129972 0.309934,0.129973 0.389916,0.119974 0.459901,0.129972 0.569878,0.119974 0.719845,0.129972 0.909805,0.129972 1.139755,0.13997 1.339712,0.129972 1.509676,0.119974 1.609654,0.109977 1.679639,0.08998 1.729629,0.07998 1.739626,0.06999 1.76962,0.04999 1.779618,0.04999 1.789615,0.03999 1.789616,0.03999 1.809611,0.02999 1.799614,0.02999 1.819609,0.01999 1.819609,0.02 1.819609,0.01 1.829607,0.02 1.829607,0.01 h 1.829607 l 1.829607,0.01 h 1.839605 l 1.839605,0.01 h 1.849603 1.839605 1.849602 1.849603 1.849603 1.849602 1.849603 1.849603 1.839605 1.849602 1.849603 1.849603 1.849603 1.849602 1.849603 1.849603 1.849602 1.849603 1.849603 1.849603 1.839604 1.849607 1.8496 1.8496 1.84961 1.8496 1.8496 1.84961 1.8496 1.8496 1.8496 1.84961 1.8496 1.8396 1.84961 1.8496 1.8496 1.8496 1.84961 1.8496 1.8496 1.84961 1.8396 1.8496 1.84961 1.8496 1.8496 1.8496 1.83961 1.81961 1.75962 1.62965 1.36971 0.72984"
         style="fill:none;stroke:#ff0000;stroke-width:0.5;stroke-linecap:butt;stroke-linejoin:miter;stroke-miterlimit:10;stroke-dasharray:none;stroke-opacity:1"
         id="path1332" />
      <path
         d="M 14.754206,57.478644 H 163.12234"
         style="fill:none;stroke:#000000;stroke-width:0.5;stroke-linecap:butt;stroke-linejoin:miter;stroke-miterlimit:10;stroke-dasharray:none;stroke-opacity:1"
         id="path1340" />
      <path
         d="M 18.953304,61.677742 V 43.411666"
         style="fill:none;stroke:#000000;stroke-width:0.5;stroke-linecap:butt;stroke-linejoin:miter;stroke-miterlimit:10;stroke-dasharray:none;stroke-opacity:1"
         id="path1344" />
    </g>
    <g
       id="g2438"
       transform="translate(118.26808,47.169422)"
       style="stroke-width:0.5;stroke-miterlimit:10;stroke-dasharray:none">
      <g
         id="g2422"
         transform="matrix(0.99995212,0,0,0.99995212,18.943292,-48.547564)"
         style="stroke-width:0.50002394;stroke-miterlimit:10;stroke-dasharray:none">
        <path
           d="m 230,83.983635 -1.47,-0.23 -2.28,-0.36 -2.67,-0.41 -2.86,-0.45 -2.95,-0.45 -2.95,-0.46 -2.94,-0.46 -2.94,-0.46 -2.91,-0.45 -2.97,-0.46 -2.8,-0.38 -2.96,-0.34 -3,-0.33 -3.03,-0.33 -3.07,-0.33 -3.09,-0.34 -3.09,-0.34 -3.09,-0.33 -3.08,-0.34 -3.1,-0.33 -3.08,-0.34 -3.07,-0.33 -3.06,-0.34 -3.02,-0.32 -2.93,-0.32 -2.96,-0.32 -3.11,-0.3 -2.59,-0.24 -2.88,-0.24 -2.88,-0.23 -2.98,-0.23 -2.99,-0.24 -3.04,-0.23 -3.07,-0.24 -3.06,-0.24 -3.07,-0.23 -3.06,-0.24 -3.05,-0.24 -3.05,-0.23 -3.03,-0.24 -3.01,-0.23 -2.92,-0.23 -2.85,-0.22 -2.82,-0.2 -2.81,-0.19 -2.82,-0.17 -2.79,-0.15 -2.78,-0.14 -2.79,-0.13 -2.83,-0.12 -2.9,-0.11 -2.94,-0.09 -2.96,-0.08 -2.95,-0.06 -2.93,-0.05 -2.93,-0.03 -2.92,-0.01 -2.93,0.01 -2.94,0.02 -2.97,0.05 -3,0.07 -3.01,0.09 -3.02,0.11 -3,0.15 -2.98,0.17 -2.96,0.2 -2.94,0.24 -2.94,0.27 -2.92,0.32 -2.9,0.36 -2.87,0.41 -2.63,0.43 -2.54,0.47 -2.43,0.52 -2.29,0.54 -2.13,0.59 -1.96,0.61 -1.75,0.63 -1.51,0.62 -1.23,0.59 -0.99,0.55 -0.78,0.5 -0.59,0.45 -0.44,0.4 -0.32,0.35 -0.25,0.32 -0.21,0.31 -0.17,0.32 -0.12,0.31 -0.08,0.35 -0.02,0.34 0.04,0.26 0.09,0.26 0.17,0.28 0.25,0.26 0.33,0.24 0.42,0.22 0.51,0.21 0.63,0.21 0.76,0.19 0.95,0.21 1.18,0.21 1.5,0.22 1.85,0.22 2.21,0.22 2.48,0.2 2.65,0.17 2.77,0.15 2.82,0.13 2.88,0.12 2.9,0.09 2.92,0.08 2.94,0.07 2.95,0.06 2.96,0.05 2.97,0.04 2.98,0.04 2.99,0.03 2.99,0.02 3.01,0.02 3,0.02 3.01,0.01 3.02,0.01 3.02,0.01 3.02,0.01 h 3.03 3.03 3.04 3.03 3.04 3.04 3.04 3.03 3.04 3.04 3.04 3.04 3.04 3.03 3.04 3.04 3.04 3.04 3.03 3.04 3.04 3.03 3.04 3.04 3.04 3.04 3.04 3.03 3.04 3.04 3.04 3.04 3.03 3.04 3.04 3.04 3.04 3.04 3.03 3.04 3.04 3.03 3.04 3.03 3.04 3.04 3.04 3.03 3.03 2.99 2.9 2.67 2.26 1.19"
           style="fill:none;stroke:#ff0000;stroke-width:0.50002394;stroke-linecap:butt;stroke-linejoin:miter;stroke-miterlimit:10;stroke-dasharray:none;stroke-opacity:1"
           id="path2420" />
      </g>
      <g
         id="g2426"
         transform="matrix(0.99995212,0,0,0.99995212,18.943292,-48.547564)"
         style="stroke-width:0.50002394;stroke-miterlimit:10;stroke-dasharray:none">
        <path
           d="M -6.9,85.063635 H 236.9"
           style="fill:none;stroke:#000000;stroke-width:0.50002394;stroke-linecap:butt;stroke-linejoin:miter;stroke-miterlimit:10;stroke-dasharray:none;stroke-opacity:1"
           id="path2424" />
      </g>
      <g
         id="g2430"
         transform="matrix(0.99995212,0,0,0.99995212,18.943292,-48.547564)"
         style="stroke-width:0.50002394;stroke-miterlimit:10;stroke-dasharray:none">
        <path
           d="m 0,91.963635 v -30.01"
           style="fill:none;stroke:#000000;stroke-width:0.50002394;stroke-linecap:butt;stroke-linejoin:miter;stroke-miterlimit:10;stroke-dasharray:none;stroke-opacity:1"
           id="path2428" />
      </g>
      <path
         d="m 158.92324,56.818786 -0.88981,-0.13997 -1.3897,-0.209955 -1.62965,-0.259944 -1.73963,-0.269942 -1.78961,-0.27994 -1.79962,-0.27994 -1.78961,-0.269942 -1.78962,-0.27994 -1.76962,-0.279939 -1.80961,-0.27994 -1.70963,-0.229951 -1.79962,-0.209955 -1.8196,-0.199957 -1.83961,-0.199957 -1.8696,-0.199957 -1.88959,-0.209955 -1.8796,-0.199957 -1.87959,-0.199957 -1.8696,-0.209955 -1.8896,-0.199957 -1.8696,-0.209955 -1.86959,-0.199957 -1.8596,-0.199957 -1.83961,-0.199957 -1.77962,-0.199957 -1.80961,-0.189959 -1.88959,-0.189959 -1.57966,-0.13997 -1.74963,-0.149968 -1.74962,-0.13997 -1.81961,-0.13997 -1.81961,-0.13997 -1.8496,-0.13997 -1.859603,-0.149968 -1.869598,-0.13997 -1.869599,-0.149967 -1.8596,-0.13997 -1.859601,-0.13997 -1.849603,-0.149968 -1.849602,-0.13997 -1.829607,-0.13997 -1.76962,-0.13997 -1.739627,-0.129972 -1.71963,-0.129972 -1.709633,-0.109976 -1.719631,-0.109977 -1.689637,-0.08998 -1.699635,-0.08998 -1.689637,-0.06999 -1.729628,-0.07998 -1.759622,-0.05999 -1.789616,-0.05999 -1.799613,-0.03999 -1.799614,-0.03999 -1.779618,-0.02999 -1.779617,-0.02 -1.779618,-0.01 -1.789616,0.01 -1.789615,0.01 -1.799614,0.02999 -1.829607,0.03999 -1.829607,0.05999 -1.839605,0.06999 -1.829607,0.08998 -1.809611,0.09998 -1.799613,0.119974 -1.789616,0.149968 -1.789616,0.169963 -1.779617,0.18996 -1.759622,0.219952 -1.749624,0.249947 -1.599657,0.259944 -1.549667,0.289938 -1.479682,0.309933 -1.389702,0.329929 -1.299721,0.359923 -1.189744,0.36992 -1.06977,0.379919 -0.909805,0.379918 -0.759837,0.359923 -0.599871,0.329929 -0.469899,0.309933 -0.359922,0.269942 -0.269942,0.249947 -0.18996,0.209955 -0.159965,0.189959 -0.119975,0.189959 -0.09998,0.199957 -0.07998,0.189959 -0.04999,0.209955 -0.01,0.209955 0.02,0.149968 0.05999,0.169963 0.09998,0.159966 0.149968,0.159966 0.209955,0.149967 0.249946,0.129972 0.309934,0.129973 0.389916,0.119974 0.459901,0.129972 0.569878,0.119974 0.719845,0.129972 0.909805,0.129972 1.139755,0.13997 1.339712,0.129972 1.509676,0.119974 1.609654,0.109977 1.679639,0.08998 1.729629,0.07998 1.739626,0.06999 1.76962,0.04999 1.779618,0.04999 1.789615,0.03999 1.789616,0.03999 1.809611,0.02999 1.799614,0.02999 1.819609,0.01999 1.819609,0.02 1.819609,0.01 1.829607,0.02 1.829607,0.01 h 1.829607 l 1.829607,0.01 h 1.839605 l 1.839605,0.01 h 1.849603 1.839605 1.849602 1.849603 1.849603 1.849602 1.849603 1.849603 1.839605 1.849602 1.849603 1.849603 1.849603 1.849602 1.849603 1.849603 1.849602 1.849603 1.849603 1.849603 1.839604 1.849607 1.8496 1.8496 1.84961 1.8496 1.8496 1.84961 1.8496 1.8496 1.8496 1.84961 1.8496 1.8396 1.84961 1.8496 1.8496 1.8496 1.84961 1.8496 1.8496 1.84961 1.8396 1.8496 1.84961 1.8496 1.8496 1.8496 1.83961 1.81961 1.75962 1.62965 1.36971 0.72984"
         style="fill:none;stroke:#ff0000;stroke-width:0.5;stroke-linecap:butt;stroke-linejoin:miter;stroke-miterlimit:10;stroke-dasharray:none;stroke-opacity:1"
         id="path2432" />
      <path
         d="M 14.754206,57.478644 H 163.12234"
         style="fill:none;stroke:#000000;stroke-width:0.5;stroke-linecap:butt;stroke-linejoin:miter;stroke-miterlimit:10;stroke-dasharray:none;stroke-opacity:1"
         id="path2434" />
      <path
         d="M 18.953304,61.677742 V 43.411666"
         style="fill:none;stroke:#000000;stroke-width:0.5;stroke-linecap:butt;stroke-linejoin:miter;stroke-miterlimit:10;stroke-dasharray:none;stroke-opacity:1"
         id="path2436" />
    </g>
    <g
       id="g2505"
       style="stroke-width:0.5;stroke-miterlimit:10;stroke-dasharray:none">
      <g
         id="g2516"
         transform="rotate(-90,68.184597,121.28577)"
         style="stroke-width:0.5;stroke-miterlimit:10;stroke-dasharray:none">
        <path
           d="m 53.02279,72.717936 11.796148,-0.324767 10.827949,0.281657 9.996488,0.803346 9.28504,1.253561 8.677095,1.645496 8.15566,1.992383 7.70431,2.307484 7.30628,2.603959 6.94478,2.894929 6.60326,3.193909 6.26505,3.513808 5.91326,3.867997 5.53145,4.269632 5.10279,4.73195 4.6106,5.26824 4.03828,5.89153 3.36899,6.61526 2.20003,6.33959 0.38618,1.11291 1.67319,8.41657 0.61317,9.52052 v 15.875 l -5.1677,-1.49525 -4.68122,-1.00231 -4.30915,-0.58455 -4.04872,-0.23668 -3.89686,0.0463 -3.85053,0.26977 -3.9068,0.43878 -4.06273,0.55859 -4.31518,0.63422 -4.66122,0.67102 -5.09795,0.67409 -5.62226,0.64855 -6.23118,0.59968 -6.92175,0.53263 -7.69094,0.45254 -8.535849,0.3646 -9.453315,0.27393 -10.440459,0.18584 -11.494346,0.10541 -12.611841,0.0378"
           stroke="#000000"
           stroke-width="0.24"
           fill-opacity="0"
           id="path2462"
           style="stroke-width:0.5;stroke-miterlimit:10;stroke-dasharray:none" />
        <path
           d="m 53.02279,72.717936 -1.937102,0.120121 -2.111022,0.360045 -2.255344,0.61595 -2.370137,0.888082 -2.45544,1.176126 -2.511072,1.480432 -2.537319,1.800719 -2.533896,2.137057 -2.500983,2.489659 -2.438506,2.858205 -2.346466,3.242875 -2.224934,3.643524 -2.073804,4.060507 -1.893182,4.493332 -1.682962,4.94238 -1.443214,5.40752 -1.173974,5.88871 -0.875065,6.38591 -0.54677,6.89934 -0.188771,7.42876 v 23.86835 l 0.89542,-0.12859 0.932815,-0.0274 0.98171,0.0635 1.042035,0.14436 1.113896,0.21501 1.197151,0.27552 1.291978,0.32586 1.39827,0.36601 1.515992,0.39606 1.645215,0.41596 1.785937,0.42567 1.938126,0.42516 2.101779,0.41448 2.276934,0.39381 2.463623,0.36279 2.661673,0.32174 2.871259,0.27044 3.092344,0.20898 3.324895,0.13745 3.568911,0.0557"
           stroke="#000000"
           stroke-width="0.24"
           fill-opacity="0"
           id="path2464"
           style="stroke-width:0.5;stroke-miterlimit:10;stroke-dasharray:none" />
        <path
           d="M 53.02279,129.8679 H 177.35025"
           stroke="#000000"
           stroke-width="0.24"
           fill-opacity="0"
           id="path2468"
           style="stroke-width:0.5;stroke-miterlimit:10;stroke-dasharray:none" />
        <path
           d="M 53.02279,129.8679 V 72.717936"
           stroke="#000000"
           stroke-width="0.24"
           fill-opacity="0"
           id="path2470"
           style="stroke-width:0.5;stroke-miterlimit:10;stroke-dasharray:none" />
        <path
           d="M 53.02279,167.96793 V 129.8679"
           stroke="#000000"
           stroke-width="0.24"
           fill-opacity="0"
           id="path2472"
           style="stroke-width:0.5;stroke-miterlimit:10;stroke-dasharray:none" />
      </g>
    </g>
    <g
       id="g2509"
       transform="translate(7.1839011,-2.2104311)"
       style="stroke-width:0.5;stroke-miterlimit:10;stroke-dasharray:none">
      <path
         d="m 340.4235,235.67442 0.5715,4.20687 0.1905,4.36563 v 36.02027 l -2.82363,-1.06497 -0.86113,-0.32477 -4.02837,-0.81678 -4.25274,-0.34601 -4.3815,0.0345 -4.43988,0.3358 -4.45548,0.56801 -4.45904,0.74041 -4.4831,0.86124 -4.56279,0.93796 -4.73558,0.97713 -5.04127,0.98432 -5.52224,0.96435 -6.223,0.921 -7.19071,0.85714 -8.47467,0.77491 -10.1268,0.6754 -12.20121,0.55883 -14.75461,0.42457 -17.8459,0.27097 -21.53638,0.0957 -46.93638,-0.0957 -17.84586,-0.27097 -14.75461,-0.42457 -12.201245,-0.55883 -10.126804,-0.6754 -8.474674,-0.77491 -7.190669,-0.85714 -6.223036,-0.921 -5.522206,-0.96435 -5.041301,-0.98432 -4.735547,-0.97713 -4.562793,-0.93796 -4.483135,-0.86124 -4.459005,-0.74041 -4.455513,-0.56801 -4.439743,-0.3358 -4.381535,-0.0345 -4.252913,0.34601 -4.028334,0.81678 -0.861095,0.32477 -2.823598,1.06497 v -36.02027 l 0.1905,-4.36563 0.5715,-4.20687 0.9525,-4.04813 1.3335,-3.88937 1.7145,-3.73063 2.0955,-3.57187 2.4765,-3.41313 2.8575,-3.25437 3.2385,-3.09563 3.619499,-2.93687 4.0005,-2.77813 4.3815,-2.61937 4.7625,-2.46062 5.1435,-2.30188 5.5245,-2.14312 5.9055,-1.98438 6.2865,-1.82562 6.6675,-1.66688 7.048499,-1.50812 7.4295,-1.34938 3.81,-0.61912 3.81,-0.58738 3.81,-0.55562 3.809998,-0.52388 3.81,-0.49212 3.81,-0.46038 3.81,-0.42862 3.81,-0.39688 3.81,-0.36512 3.81,-0.33338 3.81,-0.30162 3.81,-0.26988 3.81,-0.23812 3.81,-0.20638 3.81,-0.17462 3.81,-0.14288 3.81,-0.11112 3.81,-0.0794 3.81,-0.0476 3.81,-0.0159 29.21,0.0159 3.81,0.0476 3.81,0.0794 3.81,0.11112 3.81,0.14288 3.81003,0.17462 3.80997,0.20638 3.81,0.23812 3.81,0.26988 3.81,0.30162 3.81,0.33338 3.81,0.36512 3.81,0.39688 3.81,0.42862 3.81,0.46038 3.81,0.49212 3.81,0.52388 3.81,0.55562 3.81,0.58738 3.81,0.61912 7.4295,1.34938 7.0485,1.50812 6.6675,1.66688 6.2865,1.82562 5.9055,1.98438 5.5245,2.14312 5.14353,2.30188 4.7625,2.46062 4.38147,2.61937 4.00053,2.77813 3.6195,2.93687 3.2385,3.09563 2.8575,3.25437 2.4765,3.41313 2.0955,3.57187 1.7145,3.73063 1.3335,3.88937 z"
         stroke="#000000"
         stroke-width="0.24"
         fill-opacity="0"
         id="path2466"
         style="stroke-width:0.5;stroke-miterlimit:10;stroke-dasharray:none" />
      <path
         d="M 10.985474,244.24692 H 341.1855"
         stroke="#000000"
         stroke-width="0.24"
         fill-opacity="0"
         id="path2474"
         style="stroke-width:0.5;stroke-miterlimit:10;stroke-dasharray:none" />
    </g>
  </g>
</svg>
