<!DOCTYPE svg PUBLIC "-//W3C//DTD SVG 1.1//EN" "http://www.w3.org/Graphics/SVG/1.1/DTD/svg11.dtd">
<svg width="349.8mm" height="57.85mm" viewBox="0 0 349.8 57.85" xmlns="http://www.w3.org/2000/svg" version="1.1" xmlns:xlink="http://www.w3.org/1999/xlink">
<title>Airfoil plot (pw1211-pw) PW1211 by AirfoilTools.com</title>
<g transform="translate(9.9,26.8785)"><g transform="scale(1,-1)"><line fill="none" stroke="green" stroke-width="0.17" x1="10" x2="10" y1="-16.12" y2="26.88"></line><line fill="none" stroke="green" stroke-width="0.17" x1="20" x2="20" y1="-16.12" y2="26.88"></line><line fill="none" stroke="green" stroke-width="0.17" x1="30" x2="30" y1="-16.12" y2="26.88"></line><line fill="none" stroke="green" stroke-width="0.17" x1="40" x2="40" y1="-16.12" y2="26.88"></line><line fill="none" stroke="green" stroke-width="0.17" x1="50" x2="50" y1="-16.12" y2="26.88"></line><line fill="none" stroke="green" stroke-width="0.17" x1="60" x2="60" y1="-16.12" y2="26.88"></line><line fill="none" stroke="green" stroke-width="0.17" x1="70" x2="70" y1="-16.12" y2="26.88"></line><line fill="none" stroke="green" stroke-width="0.17" x1="80" x2="80" y1="-16.12" y2="26.88"></line><line fill="none" stroke="green" stroke-width="0.17" x1="90" x2="90" y1="-16.12" y2="26.88"></line><line fill="none" stroke="green" stroke-width="0.17" x1="100" x2="100" y1="-16.12" y2="26.88"></line><line fill="none" stroke="green" stroke-width="0.17" x1="110" x2="110" y1="-16.12" y2="26.88"></line><line fill="none" stroke="green" stroke-width="0.17" x1="120" x2="120" y1="-16.12" y2="26.88"></line><line fill="none" stroke="green" stroke-width="0.17" x1="130" x2="130" y1="-16.12" y2="26.88"></line><line fill="none" stroke="green" stroke-width="0.17" x1="140" x2="140" y1="-16.12" y2="26.88"></line><line fill="none" stroke="green" stroke-width="0.17" x1="150" x2="150" y1="-16.12" y2="26.88"></line><line fill="none" stroke="green" stroke-width="0.17" x1="160" x2="160" y1="-16.12" y2="26.88"></line><line fill="none" stroke="green" stroke-width="0.17" x1="170" x2="170" y1="-16.12" y2="26.88"></line><line fill="none" stroke="green" stroke-width="0.17" x1="180" x2="180" y1="-16.12" y2="26.88"></line><line fill="none" stroke="green" stroke-width="0.17" x1="190" x2="190" y1="-16.12" y2="26.88"></line><line fill="none" stroke="green" stroke-width="0.17" x1="200" x2="200" y1="-16.12" y2="26.88"></line><line fill="none" stroke="green" stroke-width="0.17" x1="210" x2="210" y1="-16.12" y2="26.88"></line><line fill="none" stroke="green" stroke-width="0.17" x1="220" x2="220" y1="-16.12" y2="26.88"></line><line fill="none" stroke="green" stroke-width="0.17" x1="230" x2="230" y1="-16.12" y2="26.88"></line><line fill="none" stroke="green" stroke-width="0.17" x1="240" x2="240" y1="-16.12" y2="26.88"></line><line fill="none" stroke="green" stroke-width="0.17" x1="250" x2="250" y1="-16.12" y2="26.88"></line><line fill="none" stroke="green" stroke-width="0.17" x1="260" x2="260" y1="-16.12" y2="26.88"></line><line fill="none" stroke="green" stroke-width="0.17" x1="270" x2="270" y1="-16.12" y2="26.88"></line><line fill="none" stroke="green" stroke-width="0.17" x1="280" x2="280" y1="-16.12" y2="26.88"></line><line fill="none" stroke="green" stroke-width="0.17" x1="290" x2="290" y1="-16.12" y2="26.88"></line><line fill="none" stroke="green" stroke-width="0.17" x1="300" x2="300" y1="-16.12" y2="26.88"></line><line fill="none" stroke="green" stroke-width="0.17" x1="310" x2="310" y1="-16.12" y2="26.88"></line><line fill="none" stroke="green" stroke-width="0.17" x1="320" x2="320" y1="-16.12" y2="26.88"></line><line fill="none" stroke="green" stroke-width="0.17" x1="330" x2="330" y1="-16.12" y2="26.88"></line><line fill="none" stroke="green" stroke-width="0.17" x1="-9.9" x2="339.9" y1="10" y2="10"></line><line fill="none" stroke="green" stroke-width="0.17" x1="-9.9" x2="339.9" y1="20" y2="20"></line><line fill="none" stroke="green" stroke-width="0.17" x1="-9.9" x2="339.9" y1="-10" y2="-10"></line>
<path fill="none" stroke="red" stroke-width="0.33" d="M 330 0.08 L 328.83 0.03 L 326.74 -0.03 L 324.32 -0.07 L 321.73 -0.08 L 319.07 -0.06 L 316.37 0.01 L 313.64 0.1 L 310.89 0.22 L 308.12 0.36 L 305.35 0.52 L 302.55 0.7 L 299.75 0.88 L 296.94 1.09 L 294.13 1.29 L 291.31 1.51 L 288.48 1.74 L 285.66 1.97 L 282.84 2.21 L 280.02 2.46 L 277.2 2.71 L 274.37 2.97 L 271.54 3.23 L 268.7 3.5 L 265.87 3.77 L 263.04 4.04 L 260.2 4.32 L 257.36 4.6 L 254.51 4.88 L 251.67 5.16 L 248.84 5.44 L 246.01 5.72 L 243.16 6.01 L 240.32 6.3 L 237.48 6.59 L 234.63 6.87 L 231.79 7.16 L 228.95 7.45 L 226.11 7.74 L 223.27 8.03 L 220.43 8.31 L 217.59 8.6 L 214.75 8.88 L 211.91 9.16 L 209.08 9.43 L 206.25 9.71 L 203.41 9.98 L 200.57 10.24 L 197.74 10.51 L 194.9 10.77 L 192.07 11.03 L 189.23 11.28 L 186.39 11.54 L 183.55 11.79 L 180.72 12.04 L 177.89 12.28 L 175.06 12.51 L 172.22 12.75 L 169.39 12.98 L 166.55 13.21 L 163.71 13.43 L 160.88 13.65 L 158.05 13.86 L 155.22 14.07 L 152.39 14.28 L 149.56 14.47 L 146.74 14.67 L 143.91 14.85 L 141.08 15.03 L 138.25 15.2 L 135.43 15.36 L 132.6 15.53 L 129.77 15.68 L 126.94 15.82 L 124.11 15.97 L 121.29 16.1 L 118.47 16.22 L 115.65 16.34 L 112.83 16.44 L 110.01 16.54 L 107.18 16.63 L 104.37 16.7 L 101.55 16.77 L 98.73 16.83 L 95.91 16.89 L 93.1 16.93 L 90.29 16.96 L 87.49 16.98 L 84.68 16.98 L 81.87 16.97 L 79.07 16.95 L 76.28 16.92 L 73.48 16.86 L 70.68 16.8 L 67.89 16.72 L 65.11 16.63 L 62.34 16.52 L 59.57 16.38 L 56.8 16.23 L 54.04 16.05 L 51.31 15.86 L 48.57 15.64 L 45.83 15.39 L 43.11 15.12 L 40.42 14.82 L 37.72 14.49 L 35.04 14.13 L 32.38 13.74 L 29.76 13.31 L 27.15 12.83 L 24.58 12.33 L 22.06 11.77 L 19.57 11.16 L 17.15 10.5 L 14.79 9.79 L 12.53 9.03 L 10.41 8.22 L 8.46 7.38 L 6.73 6.54 L 5.26 5.74 L 4.07 4.99 L 3.13 4.31 L 2.38 3.69 L 1.78 3.14 L 1.31 2.64 L 0.95 2.17 L 0.67 1.74 L 0.45 1.33 L 0.27 0.96 L 0.13 0.62 L 0.04 0.3 L 0 0 L 0.03 -0.3 L 0.13 -0.61 L 0.29 -0.91 L 0.52 -1.21 L 0.82 -1.5 L 1.19 -1.77 L 1.65 -2 L 2.21 -2.22 L 2.9 -2.46 L 3.75 -2.7 L 4.82 -2.97 L 6.2 -3.26 L 7.94 -3.59 L 10.01 -3.92 L 12.36 -4.24 L 14.87 -4.53 L 17.49 -4.78 L 20.19 -5.01 L 22.89 -5.21 L 25.62 -5.37 L 28.4 -5.52 L 31.16 -5.65 L 33.94 -5.76 L 36.74 -5.85 L 39.55 -5.94 L 42.34 -6.01 L 45.15 -6.06 L 47.98 -6.11 L 50.81 -6.14 L 53.63 -6.17 L 56.45 -6.19 L 59.28 -6.21 L 62.12 -6.22 L 64.96 -6.22 L 67.79 -6.22 L 70.63 -6.2 L 73.48 -6.19 L 76.33 -6.18 L 79.17 -6.16 L 82.01 -6.14 L 84.86 -6.11 L 87.71 -6.08 L 90.57 -6.06 L 93.41 -6.02 L 96.26 -5.99 L 99.11 -5.95 L 101.97 -5.91 L 104.82 -5.87 L 107.68 -5.83 L 110.53 -5.79 L 113.38 -5.75 L 116.24 -5.71 L 119.09 -5.66 L 121.95 -5.61 L 124.8 -5.57 L 127.66 -5.52 L 130.51 -5.47 L 133.37 -5.42 L 136.23 -5.37 L 139.08 -5.32 L 141.94 -5.27 L 144.79 -5.22 L 147.65 -5.17 L 150.5 -5.12 L 153.35 -5.07 L 156.21 -5.01 L 159.06 -4.96 L 161.91 -4.91 L 164.77 -4.85 L 167.62 -4.8 L 170.48 -4.74 L 173.33 -4.69 L 176.18 -4.63 L 179.04 -4.58 L 181.89 -4.52 L 184.75 -4.46 L 187.6 -4.41 L 190.46 -4.35 L 193.31 -4.29 L 196.17 -4.23 L 199.02 -4.17 L 201.87 -4.12 L 204.73 -4.06 L 207.58 -4 L 210.44 -3.94 L 213.29 -3.87 L 216.15 -3.81 L 219.01 -3.75 L 221.86 -3.68 L 224.72 -3.62 L 227.57 -3.55 L 230.43 -3.49 L 233.29 -3.42 L 236.14 -3.36 L 239 -3.29 L 241.86 -3.21 L 244.71 -3.14 L 247.57 -3.08 L 250.43 -3 L 253.28 -2.93 L 256.13 -2.85 L 258.99 -2.78 L 261.84 -2.7 L 264.7 -2.62 L 267.55 -2.54 L 270.41 -2.46 L 273.26 -2.38 L 276.11 -2.29 L 278.97 -2.21 L 281.82 -2.12 L 284.67 -2.03 L 287.52 -1.94 L 290.38 -1.85 L 293.23 -1.75 L 296.08 -1.66 L 298.92 -1.56 L 301.77 -1.46 L 304.61 -1.35 L 307.44 -1.24 L 310.28 -1.13 L 313.11 -1.01 L 315.92 -0.89 L 318.7 -0.75 L 321.46 -0.6 L 324.14 -0.44 L 326.66 -0.28 L 328.82 -0.15 L 330 -0.08 "></path>
<path fill="none" stroke="blue" stroke-width="0.33" d="M 0 0 L 330 0 "></path>
<line fill="none" stroke="black" stroke-width="0.33" x1="-9.9" x2="339.9" y1="0" y2="0"></line>
<line fill="none" stroke="black" stroke-width="0.33" x1="0" x2="0" y1="-16.12" y2="26.88"></line>
</g>
</g>
<g transform="translate(0,42.999)"><g transform="scale(3.3,3.3)"><text fill="rgb(48,48,144)" font-size="1.8" style="font-family:Arial,Helvetica,sans-serif;" x="1" y="2">Name = PW1211</text><text fill="rgb(48,48,144)" font-size="1.8" style="font-family:Arial,Helvetica,sans-serif;" x="1" y="4">Chord = 330mm  Radius = 0mm  Thickness = 100%  Origin = 0%  Pitch = 0&#176; </text></g></g></svg>