<!DOCTYPE svg PUBLIC "-//W3C//DTD SVG 1.1//EN" "http://www.w3.org/Graphics/SVG/1.1/DTD/svg11.dtd">
<svg width="190.8mm" height="31.55mm" viewBox="0 0 190.8 31.55" xmlns="http://www.w3.org/2000/svg" version="1.1" xmlns:xlink="http://www.w3.org/1999/xlink">
<title>Airfoil plot (pw1211-pw) PW1211 by AirfoilTools.com</title>
<g transform="translate(5.4,14.661)"><g transform="scale(1,-1)"><line fill="none" stroke="green" stroke-width="0.09" x1="10" x2="10" y1="-8.79" y2="14.66"></line><line fill="none" stroke="green" stroke-width="0.09" x1="20" x2="20" y1="-8.79" y2="14.66"></line><line fill="none" stroke="green" stroke-width="0.09" x1="30" x2="30" y1="-8.79" y2="14.66"></line><line fill="none" stroke="green" stroke-width="0.09" x1="40" x2="40" y1="-8.79" y2="14.66"></line><line fill="none" stroke="green" stroke-width="0.09" x1="50" x2="50" y1="-8.79" y2="14.66"></line><line fill="none" stroke="green" stroke-width="0.09" x1="60" x2="60" y1="-8.79" y2="14.66"></line><line fill="none" stroke="green" stroke-width="0.09" x1="70" x2="70" y1="-8.79" y2="14.66"></line><line fill="none" stroke="green" stroke-width="0.09" x1="80" x2="80" y1="-8.79" y2="14.66"></line><line fill="none" stroke="green" stroke-width="0.09" x1="90" x2="90" y1="-8.79" y2="14.66"></line><line fill="none" stroke="green" stroke-width="0.09" x1="100" x2="100" y1="-8.79" y2="14.66"></line><line fill="none" stroke="green" stroke-width="0.09" x1="110" x2="110" y1="-8.79" y2="14.66"></line><line fill="none" stroke="green" stroke-width="0.09" x1="120" x2="120" y1="-8.79" y2="14.66"></line><line fill="none" stroke="green" stroke-width="0.09" x1="130" x2="130" y1="-8.79" y2="14.66"></line><line fill="none" stroke="green" stroke-width="0.09" x1="140" x2="140" y1="-8.79" y2="14.66"></line><line fill="none" stroke="green" stroke-width="0.09" x1="150" x2="150" y1="-8.79" y2="14.66"></line><line fill="none" stroke="green" stroke-width="0.09" x1="160" x2="160" y1="-8.79" y2="14.66"></line><line fill="none" stroke="green" stroke-width="0.09" x1="170" x2="170" y1="-8.79" y2="14.66"></line><line fill="none" stroke="green" stroke-width="0.09" x1="180" x2="180" y1="-8.79" y2="14.66"></line><line fill="none" stroke="green" stroke-width="0.09" x1="-5.4" x2="185.4" y1="10" y2="10"></line>
<path fill="none" stroke="red" stroke-width="0.18" d="M 180 0.04 L 179.36 0.01 L 178.22 -0.02 L 176.9 -0.04 L 175.49 -0.04 L 174.04 -0.03 L 172.57 0 L 171.08 0.05 L 169.58 0.12 L 168.07 0.2 L 166.55 0.28 L 165.03 0.38 L 163.5 0.48 L 161.97 0.59 L 160.43 0.71 L 158.9 0.83 L 157.35 0.95 L 155.82 1.07 L 154.28 1.21 L 152.74 1.34 L 151.2 1.48 L 149.66 1.62 L 148.11 1.76 L 146.57 1.91 L 145.02 2.06 L 143.48 2.21 L 141.93 2.36 L 140.38 2.51 L 138.83 2.66 L 137.28 2.81 L 135.73 2.97 L 134.18 3.12 L 132.63 3.28 L 131.09 3.44 L 129.53 3.59 L 127.98 3.75 L 126.43 3.91 L 124.88 4.06 L 123.33 4.22 L 121.78 4.38 L 120.23 4.53 L 118.68 4.69 L 117.14 4.84 L 115.59 5 L 114.04 5.15 L 112.5 5.29 L 110.95 5.44 L 109.4 5.59 L 107.86 5.73 L 106.31 5.87 L 104.76 6.02 L 103.21 6.15 L 101.67 6.29 L 100.12 6.43 L 98.58 6.56 L 97.03 6.7 L 95.49 6.83 L 93.94 6.95 L 92.39 7.08 L 90.84 7.2 L 89.3 7.32 L 87.75 7.44 L 86.21 7.56 L 84.66 7.68 L 83.12 7.79 L 81.58 7.89 L 80.04 8 L 78.5 8.1 L 76.95 8.2 L 75.41 8.29 L 73.87 8.38 L 72.33 8.47 L 70.78 8.55 L 69.24 8.63 L 67.7 8.71 L 66.16 8.78 L 64.62 8.85 L 63.08 8.91 L 61.54 8.97 L 60 9.02 L 58.46 9.07 L 56.93 9.11 L 55.39 9.15 L 53.85 9.18 L 52.32 9.21 L 50.78 9.23 L 49.25 9.25 L 47.72 9.26 L 46.19 9.26 L 44.66 9.26 L 43.13 9.24 L 41.61 9.23 L 40.08 9.2 L 38.55 9.16 L 37.03 9.12 L 35.51 9.07 L 34.01 9.01 L 32.49 8.94 L 30.98 8.85 L 29.48 8.76 L 27.98 8.65 L 26.49 8.53 L 25 8.4 L 23.52 8.25 L 22.04 8.09 L 20.57 7.91 L 19.11 7.71 L 17.66 7.49 L 16.23 7.26 L 14.81 7 L 13.41 6.72 L 12.03 6.42 L 10.67 6.09 L 9.35 5.73 L 8.07 5.34 L 6.84 4.92 L 5.68 4.48 L 4.61 4.02 L 3.67 3.57 L 2.87 3.13 L 2.22 2.72 L 1.7 2.35 L 1.3 2.01 L 0.97 1.71 L 0.71 1.44 L 0.52 1.18 L 0.37 0.95 L 0.24 0.73 L 0.15 0.53 L 0.07 0.34 L 0.02 0.17 L 0 0 L 0.02 -0.17 L 0.07 -0.33 L 0.16 -0.5 L 0.28 -0.66 L 0.44 -0.82 L 0.65 -0.96 L 0.9 -1.09 L 1.21 -1.21 L 1.58 -1.34 L 2.04 -1.47 L 2.63 -1.62 L 3.38 -1.78 L 4.33 -1.96 L 5.46 -2.14 L 6.74 -2.31 L 8.11 -2.47 L 9.54 -2.61 L 11.01 -2.73 L 12.48 -2.84 L 13.98 -2.93 L 15.49 -3.01 L 17 -3.08 L 18.51 -3.14 L 20.04 -3.19 L 21.57 -3.24 L 23.1 -3.28 L 24.63 -3.3 L 26.17 -3.33 L 27.71 -3.35 L 29.25 -3.37 L 30.79 -3.38 L 32.34 -3.39 L 33.89 -3.39 L 35.43 -3.39 L 36.98 -3.39 L 38.53 -3.38 L 40.08 -3.38 L 41.63 -3.37 L 43.18 -3.36 L 44.73 -3.35 L 46.29 -3.33 L 47.84 -3.32 L 49.4 -3.3 L 50.95 -3.29 L 52.51 -3.27 L 54.06 -3.25 L 55.62 -3.22 L 57.18 -3.2 L 58.73 -3.18 L 60.29 -3.16 L 61.84 -3.14 L 63.4 -3.11 L 64.96 -3.09 L 66.52 -3.06 L 68.07 -3.04 L 69.63 -3.01 L 71.19 -2.98 L 72.75 -2.96 L 74.31 -2.93 L 75.86 -2.9 L 77.42 -2.87 L 78.98 -2.85 L 80.53 -2.82 L 82.09 -2.79 L 83.65 -2.76 L 85.2 -2.73 L 86.76 -2.71 L 88.32 -2.68 L 89.87 -2.65 L 91.43 -2.62 L 92.99 -2.59 L 94.55 -2.56 L 96.1 -2.53 L 97.66 -2.5 L 99.21 -2.46 L 100.77 -2.43 L 102.33 -2.4 L 103.89 -2.37 L 105.44 -2.34 L 107 -2.31 L 108.56 -2.28 L 110.11 -2.24 L 111.67 -2.21 L 113.23 -2.18 L 114.78 -2.15 L 116.34 -2.11 L 117.9 -2.08 L 119.46 -2.04 L 121.02 -2.01 L 122.57 -1.97 L 124.13 -1.94 L 125.69 -1.9 L 127.25 -1.87 L 128.81 -1.83 L 130.37 -1.79 L 131.92 -1.75 L 133.48 -1.72 L 135.04 -1.68 L 136.6 -1.64 L 138.15 -1.6 L 139.71 -1.56 L 141.27 -1.52 L 142.82 -1.47 L 144.38 -1.43 L 145.94 -1.39 L 147.49 -1.34 L 149.05 -1.3 L 150.61 -1.25 L 152.16 -1.2 L 153.72 -1.16 L 155.28 -1.11 L 156.83 -1.06 L 158.39 -1.01 L 159.94 -0.96 L 161.5 -0.91 L 163.05 -0.85 L 164.6 -0.8 L 166.15 -0.74 L 167.7 -0.68 L 169.25 -0.62 L 170.79 -0.55 L 172.32 -0.48 L 173.84 -0.41 L 175.34 -0.33 L 176.81 -0.24 L 178.18 -0.15 L 179.35 -0.08 L 180 -0.04 "></path>
<path fill="none" stroke="blue" stroke-width="0.18" d="M 0 0 L 180 0 "></path>
<line fill="none" stroke="black" stroke-width="0.18" x1="-5.4" x2="185.4" y1="0" y2="0"></line>
<line fill="none" stroke="black" stroke-width="0.18" x1="0" x2="0" y1="-8.79" y2="14.66"></line>
</g>
</g>
<g transform="translate(0,23.454)"><g transform="scale(1.8,1.8)"><text fill="rgb(48,48,144)" font-size="1.8" style="font-family:Arial,Helvetica,sans-serif;" x="1" y="2">Name = PW1211</text><text fill="rgb(48,48,144)" font-size="1.8" style="font-family:Arial,Helvetica,sans-serif;" x="1" y="4">Chord = 180mm  Radius = 0mm  Thickness = 100%  Origin = 0%  Pitch = 0&#176; </text></g></g></svg>